<svg width="33" height="34" viewBox="0 0 33 34" fill="none" xmlns="http://www.w3.org/2000/svg">
<path fill-rule="evenodd" clip-rule="evenodd" d="M16.5 0C20.4254 0 24.0312 1.41365 26.8642 3.77166L23.6548 6.20883C21.6169 4.77109 19.1526 3.92771 16.5 3.92771C9.50557 3.92771 3.81514 9.7946 3.81514 17.0017C3.81514 24.2088 9.50557 30.0723 16.5 30.0723C23.4978 30.0723 29.1882 24.2088 29.1882 17.0017C29.1882 16.8847 29.1848 16.7676 29.1827 16.6506L32.735 13.9529C32.9098 14.9397 33 15.961 33 17.0017C33 26.3901 25.6124 34 16.5 34C7.38864 34 0 26.3901 0 17.0017C0 7.60987 7.38864 0 16.5 0ZM29.5548 6.607C30.3354 7.64544 31.0025 8.77683 31.5348 9.98508L16.5003 21.4034L10.2185 17.3437V12.4613L16.5003 16.521L29.5548 6.607Z" fill="white"/>
</svg>
