<svg width="34" height="37" viewBox="0 0 34 37" fill="none" xmlns="http://www.w3.org/2000/svg">
<path d="M23.6676 20.6792L23.659 20.6757C23.5513 20.6278 23.447 20.5728 23.3375 20.5285C24.5593 19.5359 25.5473 18.2684 26.2271 16.8218C26.9068 15.3753 27.2604 13.7875 27.2611 12.1784C27.257 11.8049 27.2313 11.4319 27.1842 11.0615C27.2105 10.991 27.2322 10.9188 27.2492 10.8452L27.7298 6.59574C27.8798 5.25286 27.5317 3.90109 26.7562 2.81419C25.9807 1.72728 24.8357 0.986483 23.553 0.741809L22.2018 0.488293C18.7621 -0.162764 15.2371 -0.162764 11.7975 0.488293L10.4445 0.741809C9.16184 0.986483 8.0168 1.72728 7.24129 2.81419C6.46579 3.90109 6.11778 5.25286 6.26774 6.59574L6.74666 10.8452C6.76415 10.9188 6.78644 10.9911 6.81336 11.0615C6.76627 11.4319 6.74056 11.8049 6.73639 12.1784C6.73712 13.7875 7.09071 15.3753 7.77045 16.8218C8.45018 18.2684 9.43828 19.5359 10.66 20.5285C10.5506 20.5728 10.4462 20.6278 10.3385 20.6757L10.3299 20.6792C7.5299 21.8992 5.09596 23.8738 3.28083 26.398C1.46569 28.9222 0.335536 31.9041 0.00769719 35.0339C-0.0348881 35.4978 0.100409 35.9603 0.384321 36.3216C0.668234 36.6828 1.07794 36.9137 1.5248 36.9642C1.97167 37.0148 2.41978 36.881 2.7722 36.5917C3.12461 36.3025 3.353 35.8811 3.40796 35.4186C3.64866 33.1177 4.43249 30.9136 5.69017 29.0011C6.94785 27.0887 8.64066 25.5269 10.619 24.4536L15.7895 29.8129C16.1103 30.1453 16.5452 30.332 16.9988 30.332C17.4523 30.332 17.8873 30.1453 18.208 29.8129L23.3785 24.4536C25.3569 25.5269 27.0497 27.0887 28.3074 29.0011C29.565 30.9136 30.3489 33.1177 30.5896 35.4186C30.635 35.8525 30.8333 36.2537 31.1463 36.5454C31.4594 36.8372 31.8653 36.9991 32.2863 37C32.3491 36.9999 32.4119 36.9963 32.4744 36.9894C32.6978 36.9642 32.9143 36.8936 33.1114 36.7817C33.3085 36.6698 33.4823 36.5187 33.6231 36.3371C33.7638 36.1555 33.8686 35.947 33.9316 35.7234C33.9945 35.4997 34.0143 35.2655 33.9898 35.0339C33.6618 31.9039 32.5314 28.9219 30.716 26.3977C28.9005 23.8734 26.4662 21.8989 23.6659 20.6792H23.6676ZM9.66459 6.18089C9.61491 5.73346 9.73106 5.28316 9.98953 4.92112C10.248 4.55908 10.6295 4.31232 11.0569 4.23076L12.4081 3.97725C15.4434 3.40229 18.5541 3.40229 21.5895 3.97725L22.9407 4.23076C23.368 4.31232 23.7495 4.55908 24.008 4.92112C24.2665 5.28316 24.3826 5.73346 24.3329 6.18089L24.0285 8.86498H9.96904L9.66459 6.18089ZM16.9988 26.0545L14.1766 23.1275C16.0368 22.713 17.9607 22.713 19.8209 23.1275L16.9988 26.0545ZM16.9988 19.2716C15.2234 19.2694 13.5181 18.5529 12.2425 17.273C10.9669 15.9931 10.2204 14.2498 10.1606 12.4107H23.8369C23.7771 14.2498 23.0307 15.9931 21.755 17.273C20.4794 18.5529 18.7742 19.2694 16.9988 19.2716Z" fill="#FFFBFB"/>
</svg>
