<svg width="109" height="108" viewBox="0 0 109 108" fill="none" xmlns="http://www.w3.org/2000/svg">
<path d="M67.362 65.8874C63.7188 68.791 59.1799 70.3744 54.5 70.3744C49.8201 70.3744 45.2812 68.791 41.638 65.8874C40.525 64.9729 39.0902 64.533 37.649 64.6644C36.2079 64.7957 34.8786 65.4876 33.9535 66.5877C33.0284 67.6879 32.5834 69.1063 32.7163 70.5309C32.8491 71.9554 33.549 73.2695 34.662 74.1839C40.2283 78.7772 47.2491 81.2933 54.5 81.2933C61.7509 81.2933 68.7717 78.7772 74.338 74.1839C75.451 73.2695 76.1509 71.9554 76.2838 70.5309C76.4166 69.1063 75.9716 67.6879 75.0465 66.5877C74.5885 66.043 74.0264 65.5928 73.3923 65.2627C72.7582 64.9327 72.0646 64.7294 71.351 64.6644C69.9099 64.533 68.475 64.9729 67.362 65.8874ZM39.2945 46.008C40.3156 47.0114 41.697 47.5746 43.1368 47.5746C44.5766 47.5746 45.9579 47.0114 46.979 46.008C47.9941 44.9986 48.5638 43.6332 48.5638 42.21C48.5638 40.7867 47.9941 39.4213 46.979 38.4119C43.8601 35.4865 39.7245 33.8557 35.425 33.8557C31.1255 33.8557 26.9899 35.4865 23.871 38.4119C23.3005 38.8948 22.8371 39.4891 22.51 40.1575C22.1829 40.8259 21.9991 41.5539 21.9701 42.2959C21.9411 43.0378 22.0675 43.7777 22.3415 44.469C22.6155 45.1603 23.0311 45.7882 23.5623 46.3132C24.0934 46.8383 24.7286 47.2491 25.428 47.5199C26.1273 47.7908 26.8758 47.9158 27.6264 47.8871C28.3769 47.8585 29.1134 47.6768 29.7896 47.3534C30.4657 47.03 31.0669 46.572 31.5555 46.008C32.0622 45.5031 32.6649 45.1023 33.3291 44.8288C33.9932 44.5553 34.7056 44.4145 35.425 44.4145C36.1445 44.4145 36.8568 44.5553 37.521 44.8288C38.1851 45.1023 38.7879 45.5031 39.2945 46.008ZM85.129 38.4119C82.0101 35.4865 77.8745 33.8557 73.575 33.8557C69.2755 33.8557 65.1399 35.4865 62.021 38.4119C61.1282 39.4425 60.6616 40.7682 60.7146 42.124C60.7676 43.4799 61.3362 44.7661 62.3068 45.7255C63.2774 46.685 64.5785 47.2471 65.9502 47.2995C67.3218 47.3518 68.6629 46.8906 69.7055 46.008C70.2122 45.5031 70.8149 45.1023 71.4791 44.8288C72.1432 44.5553 72.8555 44.4145 73.575 44.4145C74.2945 44.4145 75.0068 44.5553 75.671 44.8288C76.3351 45.1023 76.9379 45.5031 77.4445 46.008C78.4656 47.0114 79.847 47.5746 81.2868 47.5746C82.7266 47.5746 84.1079 47.0114 85.129 46.008C86.1441 44.9986 86.7138 43.6332 86.7138 42.21C86.7138 40.7867 86.1441 39.4213 85.129 38.4119ZM54.5 0C43.7209 0 33.1839 3.15963 24.2214 9.07934C15.259 14.999 8.27356 23.4129 4.14859 33.2571C0.0236139 43.1012 -1.05567 53.9333 1.04723 64.3838C3.15012 74.8343 8.34074 84.4336 15.9627 91.968C23.5847 99.5023 33.2956 104.633 43.8676 106.712C54.4396 108.791 65.3977 107.724 75.3563 103.646C85.3148 99.5687 93.8266 92.6636 99.8151 83.8041C105.804 74.9447 109 64.5288 109 53.8736C109 46.7988 107.59 39.7933 104.851 33.2571C102.113 26.7208 98.0981 20.7818 93.0373 15.7792C87.9765 10.7766 81.9685 6.80828 75.3563 4.10088C68.744 1.39348 61.6571 0 54.5 0ZM54.5 96.9725C45.8768 96.9725 37.4471 94.4447 30.2772 89.709C23.1072 84.9732 17.5189 78.2421 14.2189 70.3668C10.9189 62.4915 10.0555 53.8258 11.7378 45.4654C13.4201 37.105 17.5726 29.4256 23.6702 23.3981C29.7677 17.3706 37.5365 13.2658 45.9941 11.6028C54.4516 9.93987 63.2181 10.7934 71.185 14.0554C79.1519 17.3175 85.9613 22.8416 90.7521 29.9291C95.5429 37.0167 98.1 45.3494 98.1 53.8736C98.1 65.3041 93.5064 76.2665 85.3299 84.3491C77.1533 92.4317 66.0635 96.9725 54.5 96.9725Z" fill="#0A7E63"/>
</svg>
