<svg width="27" height="33" viewBox="0 0 27 33" fill="none" xmlns="http://www.w3.org/2000/svg">
<path d="M8.20243 11.033L8.19943 11.0345L8.19493 11.0374L8.20243 11.033ZM23.1335 10.754C23.0292 10.6539 22.9134 10.5662 22.7885 10.4929C22.6117 10.3894 22.4155 10.3231 22.2119 10.298C22.0084 10.2729 21.8018 10.2896 21.605 10.3471C21.4081 10.4045 21.2253 10.5015 21.0676 10.6321C20.91 10.7626 20.781 10.924 20.6885 11.1061C20.1719 12.1189 19.4592 13.0203 18.5915 13.7586C18.7245 13.0149 18.7918 12.2612 18.7925 11.5059C18.7953 9.20865 18.1861 6.9517 17.0267 4.9648C15.8674 2.9779 14.1993 1.33203 12.1925 0.194755C11.9713 0.0697814 11.7218 0.00279253 11.4675 8.54384e-05C11.2131 -0.00262165 10.9623 0.0590419 10.7385 0.17928C10.5147 0.299517 10.3253 0.474379 10.1882 0.687427C10.051 0.900476 9.97058 1.14471 9.95444 1.39718C9.87046 2.81159 9.49865 4.19432 8.86154 5.46162C8.22442 6.72891 7.33526 7.85438 6.24792 8.76984L5.90292 9.04882C4.76534 9.81002 3.75844 10.7485 2.92091 11.8281C1.61931 13.4589 0.717681 15.3688 0.287519 17.4065C-0.142643 19.4441 -0.0894994 21.5534 0.442735 23.5671C0.974968 25.5808 1.97165 27.4434 3.35373 29.0073C4.73581 30.5712 6.46527 31.7933 8.40493 32.5766C8.63266 32.6688 8.87969 32.7039 9.12426 32.6788C9.36884 32.6537 9.60346 32.5693 9.80749 32.4328C10.0115 32.2963 10.1787 32.1121 10.2943 31.8963C10.4099 31.6805 10.4704 31.4397 10.4704 31.1952C10.4692 31.0371 10.4439 30.8802 10.3954 30.7297C10.0598 29.4751 9.96317 28.1692 10.1104 26.8793C11.5302 29.5416 13.8088 31.6517 16.58 32.8705C16.9181 33.0208 17.3003 33.041 17.6525 32.9272C19.8417 32.2243 21.8139 30.9764 23.3816 29.302C24.9494 27.6277 26.0606 25.5824 26.6099 23.3607C27.1591 21.1389 27.128 18.8143 26.5195 16.6079C25.9111 14.4014 24.7455 12.3863 23.1335 10.754ZM17.276 29.8958C15.9684 29.2368 14.8149 28.3116 13.8905 27.1801C12.9661 26.0487 12.2914 24.7365 11.9105 23.3287C11.794 22.8546 11.7038 22.3745 11.6405 21.8906C11.5978 21.5824 11.4593 21.2952 11.2444 21.0692C11.0295 20.8431 10.7489 20.6896 10.4419 20.63C10.3476 20.6117 10.2516 20.6027 10.1554 20.6031C9.89189 20.6029 9.63292 20.6717 9.40461 20.8026C9.1763 20.9336 8.98671 21.122 8.85494 21.349C7.6106 23.4842 6.98499 25.9204 7.04743 28.3875C5.95266 27.5412 5.03768 26.4872 4.35554 25.2866C3.67339 24.0859 3.23765 22.7626 3.07357 21.3933C2.90948 20.0239 3.02032 18.6358 3.39966 17.3093C3.779 15.9829 4.41929 14.7446 5.28342 13.6661C5.93955 12.8185 6.73107 12.0837 7.62643 11.491C7.66561 11.466 7.70319 11.4386 7.73893 11.4089C7.73893 11.4089 8.18293 11.0434 8.19793 11.0359C10.3357 9.23835 11.8564 6.8222 12.548 4.12426C14.1821 5.62709 15.2716 7.6245 15.6473 9.80632C16.0229 11.9881 15.6637 14.2323 14.6255 16.1903C14.4881 16.4516 14.4316 16.7476 14.4633 17.0408C14.4949 17.334 14.6133 17.6113 14.8033 17.8377C14.9934 18.0641 15.2466 18.2294 15.5311 18.3126C15.8155 18.3959 16.1184 18.3935 16.4015 18.3057C18.6991 17.589 20.7208 16.1896 22.1945 14.2956C23.0806 15.5968 23.6599 17.0802 23.8893 18.6351C24.1187 20.19 23.9923 21.7763 23.5196 23.2759C23.0468 24.7754 22.2398 26.1495 21.1587 27.2957C20.0777 28.4419 18.7505 29.3307 17.276 29.8958Z" fill="#FFFBFB"/>
</svg>
