<svg width="90" height="93" viewBox="0 0 90 93" fill="none" xmlns="http://www.w3.org/2000/svg">
<path d="M75 74.114C73.6739 74.114 72.4021 74.602 71.4645 75.4707C70.5268 76.3394 70 77.5176 70 78.7461C70 79.9746 69.4732 81.1528 68.5355 82.0215C67.5979 82.8902 66.3261 83.3782 65 83.3782H15C13.6739 83.3782 12.4021 82.8902 11.4645 82.0215C10.5268 81.1528 10 79.9746 10 78.7461V13.8964C10 12.6679 10.5268 11.4897 11.4645 10.621C12.4021 9.75227 13.6739 9.26425 15 9.26425H40V23.1606C40 26.8462 41.5803 30.3808 44.3934 32.9868C47.2064 35.5929 51.0218 37.057 55 37.057H70V41.6891C70 42.9176 70.5268 44.0958 71.4645 44.9645C72.4021 45.8332 73.6739 46.3212 75 46.3212C76.3261 46.3212 77.5979 45.8332 78.5355 44.9645C79.4732 44.0958 80 42.9176 80 41.6891V32.4249C80 32.4249 80 32.4249 80 32.1469C79.9479 31.7214 79.8474 31.3022 79.7 30.8963C79.7212 30.758 79.7212 30.6176 79.7 30.4794C79.4596 30.0031 79.1389 29.5653 78.75 29.1824L48.75 1.38964C48.3367 1.02933 47.8641 0.73225 47.35 0.509533H46.85C46.3783 0.275292 45.8733 0.103763 45.35 0H15C11.0218 0 7.20644 1.46408 4.3934 4.07015C1.58035 6.67623 0 10.2108 0 13.8964V78.7461C0 82.4316 1.58035 85.9662 4.3934 88.5723C7.20644 91.1784 11.0218 92.6424 15 92.6424H65C68.9782 92.6424 72.7936 91.1784 75.6066 88.5723C78.4196 85.9662 80 82.4316 80 78.7461C80 77.5176 79.4732 76.3394 78.5355 75.4707C77.5979 74.602 76.3261 74.114 75 74.114ZM50 15.7955L62.95 27.7927H55C53.6739 27.7927 52.4021 27.3047 51.4645 26.436C50.5268 25.5673 50 24.3891 50 23.1606V15.7955ZM85 55.5855H72.5C71.842 55.5819 71.1897 55.6988 70.5805 55.9293C69.9713 56.1598 69.4172 56.4995 68.95 56.9288L62.75 62.7189L48.75 47.8961C48.2996 47.4182 47.7481 47.031 47.1296 46.7586C46.511 46.4862 45.8387 46.3345 45.1543 46.3128C44.4698 46.2911 43.7878 46.3998 43.1506 46.6324C42.5134 46.8649 41.9346 47.2162 41.45 47.6645L32.95 55.5855H25C23.6739 55.5855 22.4021 56.0735 21.4645 56.9422C20.5268 57.8109 20 58.9891 20 60.2176C20 61.4461 20.5268 62.6243 21.4645 63.493C22.4021 64.3617 23.6739 64.8497 25 64.8497H35C35.658 64.8532 36.3103 64.7364 36.9195 64.5059C37.5287 64.2754 38.0828 63.9357 38.55 63.5064L45 57.7162L59 72.539C59.4516 73.016 60.0042 73.4018 60.6235 73.6728C61.2428 73.9437 61.9155 74.0938 62.6 74.114C63.258 74.1175 63.9103 74.0006 64.5195 73.7701C65.1287 73.5396 65.6828 73.2 66.15 72.7706L74.55 64.8497H85C86.3261 64.8497 87.5979 64.3617 88.5355 63.493C89.4732 62.6243 90 61.4461 90 60.2176C90 58.9891 89.4732 57.8109 88.5355 56.9422C87.5979 56.0735 86.3261 55.5855 85 55.5855Z" fill="#0A7E63"/>
</svg>
