<svg width="28" height="29" viewBox="0 0 28 29" fill="none" xmlns="http://www.w3.org/2000/svg">
<path d="M19.1988 15.5285C20.5781 14.4107 21.5849 12.8779 22.0791 11.1433C22.5733 9.40863 22.5303 7.5585 21.956 5.85022C21.3818 4.14194 20.305 2.66051 18.8753 1.61198C17.4456 0.563453 15.7342 0 13.9791 0C12.2241 0 10.5127 0.563453 9.08299 1.61198C7.65331 2.66051 6.57646 4.14194 6.00225 5.85022C5.42804 7.5585 5.38504 9.40863 5.87921 11.1433C6.37339 12.8779 7.38017 14.4107 8.7595 15.5285C6.396 16.5039 4.33376 18.1216 2.79263 20.2092C1.25151 22.2968 0.289269 24.7761 0.00850124 27.3827C-0.0118222 27.573 0.00444447 27.7656 0.0563721 27.9494C0.1083 28.1332 0.194871 28.3047 0.311144 28.4541C0.545969 28.7558 0.887517 28.949 1.26065 28.9913C1.63379 29.0335 2.00795 28.9214 2.30082 28.6795C2.59369 28.4376 2.78128 28.0858 2.82233 27.7015C3.13126 24.8686 4.44265 22.2524 6.50593 20.3525C8.56922 18.4526 11.2397 17.4023 14.0073 17.4023C16.7748 17.4023 19.4454 18.4526 21.5086 20.3525C23.5719 22.2524 24.8833 24.8686 25.1922 27.7015C25.2305 28.0576 25.3955 28.3865 25.6553 28.6246C25.9151 28.8628 26.2513 28.9934 26.5992 28.9913H26.7539C27.1227 28.9475 27.4598 28.7555 27.6917 28.4569C27.9236 28.1583 28.0316 27.7774 27.992 27.3972C27.7099 24.7832 26.7425 22.2975 25.1934 20.2067C23.6444 18.1159 21.5721 16.4987 19.1988 15.5285ZM13.9791 14.4996C12.8661 14.4996 11.7781 14.1596 10.8526 13.5227C9.92713 12.8857 9.20582 11.9804 8.77987 10.9212C8.35393 9.86203 8.24248 8.69653 8.45963 7.57208C8.67677 6.44763 9.21276 5.41477 9.9998 4.60409C10.7868 3.79341 11.7896 3.24134 12.8812 3.01767C13.9729 2.79401 15.1044 2.9088 16.1328 3.34754C17.1611 3.78627 18.04 4.52924 18.6584 5.4825C19.2767 6.43576 19.6068 7.55647 19.6068 8.70295C19.6068 10.2403 19.0139 11.7147 17.9585 12.8018C16.9031 13.8889 15.4717 14.4996 13.9791 14.4996Z" fill="#FFFBFB"/>
</svg>
